<?xml version="1.0" standalone="no"?>
<svg xmlns:xlink="http://www.w3.org/1999/xlink" xmlns="http://www.w3.org/2000/svg" width="296mm" height="153mm" viewBox="0 0 296 153"><g id="svgGroup" stroke="#000" stroke-width="0.25mm" stroke-linecap="round" fill="none" fill-rule="evenodd" font-size="9pt"><path d="M 1 1 m -1 0 a 1 1 0 0 1 2 0 a 1 1 0 0 1 -2 0 z M 8.1785165 15.1785165 m -4.1785165 0 a 4.1785165 4.1785165 0 0 1 8.357033 0 a 4.1785165 4.1785165 0 0 1 -8.357033 0 z M 138.8214835 15.1785165 m -4.1785165 0 a 4.1785165 4.1785165 0 0 1 8.357033 0 a 4.1785165 4.1785165 0 0 1 -8.357033 0 z M 154 75 L 154 55.3392582 L 151 55.3392582 L 151 36.3392582 L 154 36.3392582 L 154 16.6785165 L 218 16.6785165 L 218 36.3392582 L 221 36.3392582 L 221 55.3392582 L 218 55.3392582 L 218 75 L 154 75 Z M 175.5 67.8214835 L 196.5 67.8214835 L 196.5 65.1214835 L 175.5 65.1214835 L 175.5 67.8214835 Z M 229 75 L 229 55.3392582 L 226 55.3392582 L 226 36.3392582 L 229 36.3392582 L 229 16.6785165 L 250.5 16.6785165 L 250.5 13.6785165 L 271.5 13.6785165 L 271.5 16.6785165 L 293 16.6785165 L 293 36.3392582 L 296 36.3392582 L 296 55.3392582 L 293 55.3392582 L 293 75 L 229 75 Z M 250.5 67.8214835 L 271.5 67.8214835 L 271.5 65.1214835 L 250.5 65.1214835 L 250.5 67.8214835 Z M 15.357033 150 L 15.357033 128.5 L 9.6785165 128.5 L 9.6785165 107.5 L 15.357033 107.5 L 15.357033 86 L 29.5892582 86 L 29.5892582 83 L 43.5892582 83 L 43.5892582 86 L 57.8214835 86 L 57.8214835 107.5 L 60.8214835 107.5 L 60.8214835 128.5 L 57.8214835 128.5 L 57.8214835 150 L 43.5892582 150 L 43.5892582 153 L 29.5892582 153 L 29.5892582 150 L 15.357033 150 Z M 79 150 L 79 86 L 79.2785165 86 L 79.2785165 83 L 87.0785165 83 L 87.0785165 86 L 143 86 L 143 150 L 87.0785165 150 L 87.0785165 153 L 79.2785165 153 L 79.2785165 150 L 79 150 Z M 132.8214835 128.5 L 135.6714835 128.5 L 135.6714835 107.5 L 132.8214835 107.5 L 132.8214835 128.5 Z M 4 78 L 4 69.3214835 L 1 69.3214835 L 1 8 L 71 8 L 71 69.3214835 L 68 69.3214835 L 68 78 L 4 78 Z M 12.357033 55.3392582 L 15.057033 55.3392582 L 15.057033 36.3392582 L 12.357033 36.3392582 L 12.357033 55.3392582 Z M 57.8214835 55.3392582 L 60.5214835 55.3392582 L 60.5214835 36.3392582 L 57.8214835 36.3392582 L 57.8214835 55.3392582 Z M 29.5892582 67.8214835 L 43.5892582 67.8214835 L 43.5892582 65.1214835 L 29.5892582 65.1214835 L 29.5892582 67.8214835 Z M 143 78 L 143 69.3214835 L 146 69.3214835 L 146 8 L 76 8 L 76 69.3214835 L 79 69.3214835 L 79 78 L 143 78 Z M 134.642967 55.3392582 L 131.942967 55.3392582 L 131.942967 36.3392582 L 134.642967 36.3392582 L 134.642967 55.3392582 Z M 89.1785165 55.3392582 L 86.4785165 55.3392582 L 86.4785165 36.3392582 L 89.1785165 36.3392582 L 89.1785165 55.3392582 Z M 117.4107418 67.8214835 L 103.4107418 67.8214835 L 103.4107418 65.1214835 L 117.4107418 65.1214835 L 117.4107418 67.8214835 Z" vector-effect="non-scaling-stroke"/></g></svg>